<mxfile host="app.diagrams.net" agent="Mozilla/5.0 (Windows NT 10.0; Win64; x64) AppleWebKit/537.36 (KHTML, like Gecko) Chrome/131.0.0.0 Safari/537.36" version="24.8.6">
  <diagram name="Сторінка-1" id="LJhArHW7XcIs-RSoZ5gW">
    <mxGraphModel dx="1050" dy="530" grid="1" gridSize="10" guides="1" tooltips="1" connect="1" arrows="1" fold="1" page="1" pageScale="1" pageWidth="827" pageHeight="1169" math="0" shadow="0">
      <root>
        <mxCell id="0" />
        <mxCell id="1" parent="0" />
        <mxCell id="FpEalk4_GSlrNA8bFfrE-1" value="&lt;font style=&quot;font-size: 14px;&quot;&gt;End&lt;/font&gt;" style="ellipse;whiteSpace=wrap;html=1;" vertex="1" parent="1">
          <mxGeometry x="354" y="780" width="120" height="50" as="geometry" />
        </mxCell>
        <mxCell id="FpEalk4_GSlrNA8bFfrE-2" style="edgeStyle=orthogonalEdgeStyle;rounded=0;orthogonalLoop=1;jettySize=auto;html=1;exitX=0.5;exitY=1;exitDx=0;exitDy=0;entryX=0.5;entryY=0;entryDx=0;entryDy=0;" edge="1" parent="1" source="FpEalk4_GSlrNA8bFfrE-3" target="FpEalk4_GSlrNA8bFfrE-5">
          <mxGeometry relative="1" as="geometry">
            <mxPoint x="414" y="130" as="targetPoint" />
          </mxGeometry>
        </mxCell>
        <mxCell id="FpEalk4_GSlrNA8bFfrE-3" value="&lt;font style=&quot;font-size: 14px;&quot;&gt;Start&lt;/font&gt;" style="ellipse;whiteSpace=wrap;html=1;" vertex="1" parent="1">
          <mxGeometry x="354" y="40" width="120" height="50" as="geometry" />
        </mxCell>
        <mxCell id="FpEalk4_GSlrNA8bFfrE-4" style="edgeStyle=orthogonalEdgeStyle;rounded=0;orthogonalLoop=1;jettySize=auto;html=1;exitX=0.5;exitY=1;exitDx=0;exitDy=0;entryX=0.5;entryY=0;entryDx=0;entryDy=0;" edge="1" parent="1" source="FpEalk4_GSlrNA8bFfrE-5" target="FpEalk4_GSlrNA8bFfrE-7">
          <mxGeometry relative="1" as="geometry" />
        </mxCell>
        <mxCell id="FpEalk4_GSlrNA8bFfrE-5" value="&lt;span style=&quot;font-size: 14px;&quot;&gt;int n&lt;/span&gt;&lt;div&gt;&lt;span style=&quot;font-size: 14px;&quot;&gt;vector&amp;lt;int&amp;gt; a(n), b(n), c(n), i=0, nedov=0&lt;/span&gt;&lt;/div&gt;" style="shape=parallelogram;perimeter=parallelogramPerimeter;whiteSpace=wrap;html=1;fixedSize=1;" vertex="1" parent="1">
          <mxGeometry x="335" y="120" width="156.33" height="70" as="geometry" />
        </mxCell>
        <mxCell id="FpEalk4_GSlrNA8bFfrE-6" style="edgeStyle=orthogonalEdgeStyle;rounded=0;orthogonalLoop=1;jettySize=auto;html=1;exitX=0.5;exitY=1;exitDx=0;exitDy=0;entryX=0.5;entryY=0;entryDx=0;entryDy=0;" edge="1" parent="1" source="FpEalk4_GSlrNA8bFfrE-7" target="FpEalk4_GSlrNA8bFfrE-19">
          <mxGeometry relative="1" as="geometry">
            <mxPoint x="413.5" y="340" as="targetPoint" />
          </mxGeometry>
        </mxCell>
        <mxCell id="FpEalk4_GSlrNA8bFfrE-7" value="&lt;span style=&quot;font-size: 14px;&quot;&gt;input n&lt;/span&gt;" style="shape=parallelogram;perimeter=parallelogramPerimeter;whiteSpace=wrap;html=1;fixedSize=1;" vertex="1" parent="1">
          <mxGeometry x="354" y="230" width="120" height="60" as="geometry" />
        </mxCell>
        <mxCell id="FpEalk4_GSlrNA8bFfrE-25" style="edgeStyle=orthogonalEdgeStyle;rounded=0;orthogonalLoop=1;jettySize=auto;html=1;exitX=1;exitY=0.5;exitDx=0;exitDy=0;entryX=0;entryY=0.5;entryDx=0;entryDy=0;" edge="1" parent="1" source="FpEalk4_GSlrNA8bFfrE-19" target="FpEalk4_GSlrNA8bFfrE-20">
          <mxGeometry relative="1" as="geometry" />
        </mxCell>
        <mxCell id="FpEalk4_GSlrNA8bFfrE-26" value="Yes" style="edgeLabel;html=1;align=center;verticalAlign=middle;resizable=0;points=[];" vertex="1" connectable="0" parent="FpEalk4_GSlrNA8bFfrE-25">
          <mxGeometry x="-0.4526" y="-2" relative="1" as="geometry">
            <mxPoint as="offset" />
          </mxGeometry>
        </mxCell>
        <mxCell id="FpEalk4_GSlrNA8bFfrE-31" style="edgeStyle=orthogonalEdgeStyle;rounded=0;orthogonalLoop=1;jettySize=auto;html=1;exitX=0;exitY=0.5;exitDx=0;exitDy=0;entryX=0.5;entryY=0;entryDx=0;entryDy=0;" edge="1" parent="1" source="FpEalk4_GSlrNA8bFfrE-19" target="FpEalk4_GSlrNA8bFfrE-22">
          <mxGeometry relative="1" as="geometry">
            <Array as="points">
              <mxPoint x="310" y="370" />
              <mxPoint x="310" y="440" />
              <mxPoint x="414" y="440" />
            </Array>
          </mxGeometry>
        </mxCell>
        <mxCell id="FpEalk4_GSlrNA8bFfrE-32" value="No" style="edgeLabel;html=1;align=center;verticalAlign=middle;resizable=0;points=[];" vertex="1" connectable="0" parent="FpEalk4_GSlrNA8bFfrE-31">
          <mxGeometry x="-0.8272" relative="1" as="geometry">
            <mxPoint as="offset" />
          </mxGeometry>
        </mxCell>
        <mxCell id="FpEalk4_GSlrNA8bFfrE-19" value="&lt;font style=&quot;font-size: 14px;&quot;&gt;i&amp;lt;n&lt;/font&gt;" style="rhombus;whiteSpace=wrap;html=1;" vertex="1" parent="1">
          <mxGeometry x="374" y="330" width="80" height="80" as="geometry" />
        </mxCell>
        <mxCell id="FpEalk4_GSlrNA8bFfrE-28" style="edgeStyle=orthogonalEdgeStyle;rounded=0;orthogonalLoop=1;jettySize=auto;html=1;exitX=1;exitY=0.5;exitDx=0;exitDy=0;entryX=0;entryY=0.5;entryDx=0;entryDy=0;" edge="1" parent="1" source="FpEalk4_GSlrNA8bFfrE-20" target="FpEalk4_GSlrNA8bFfrE-27">
          <mxGeometry relative="1" as="geometry" />
        </mxCell>
        <mxCell id="FpEalk4_GSlrNA8bFfrE-20" value="&lt;font style=&quot;font-size: 14px;&quot;&gt;input a[i], b[i], c[i]&lt;/font&gt;" style="shape=parallelogram;perimeter=parallelogramPerimeter;whiteSpace=wrap;html=1;fixedSize=1;" vertex="1" parent="1">
          <mxGeometry x="520" y="335" width="140" height="70" as="geometry" />
        </mxCell>
        <mxCell id="FpEalk4_GSlrNA8bFfrE-33" style="edgeStyle=orthogonalEdgeStyle;rounded=0;orthogonalLoop=1;jettySize=auto;html=1;exitX=0.5;exitY=1;exitDx=0;exitDy=0;entryX=0.5;entryY=0;entryDx=0;entryDy=0;" edge="1" parent="1" source="FpEalk4_GSlrNA8bFfrE-22" target="FpEalk4_GSlrNA8bFfrE-24">
          <mxGeometry relative="1" as="geometry" />
        </mxCell>
        <mxCell id="FpEalk4_GSlrNA8bFfrE-22" value="&lt;font style=&quot;font-size: 14px;&quot;&gt;a = findMedian(a)&lt;/font&gt;&lt;div&gt;&lt;font style=&quot;font-size: 14px;&quot;&gt;b = findMedian(b)&lt;/font&gt;&lt;/div&gt;&lt;div&gt;&lt;font style=&quot;font-size: 14px;&quot;&gt;c = findMedian(c)&lt;/font&gt;&lt;/div&gt;" style="shape=process;whiteSpace=wrap;html=1;backgroundOutline=1;" vertex="1" parent="1">
          <mxGeometry x="326" y="480" width="176" height="60" as="geometry" />
        </mxCell>
        <mxCell id="FpEalk4_GSlrNA8bFfrE-37" style="edgeStyle=orthogonalEdgeStyle;rounded=0;orthogonalLoop=1;jettySize=auto;html=1;exitX=0.5;exitY=1;exitDx=0;exitDy=0;entryX=0.5;entryY=0;entryDx=0;entryDy=0;" edge="1" parent="1" source="FpEalk4_GSlrNA8bFfrE-24" target="FpEalk4_GSlrNA8bFfrE-35">
          <mxGeometry relative="1" as="geometry" />
        </mxCell>
        <mxCell id="FpEalk4_GSlrNA8bFfrE-24" value="&lt;font style=&quot;font-size: 14px;&quot;&gt;i=0&lt;/font&gt;" style="rounded=1;whiteSpace=wrap;html=1;" vertex="1" parent="1">
          <mxGeometry x="354" y="570" width="120" height="60" as="geometry" />
        </mxCell>
        <mxCell id="FpEalk4_GSlrNA8bFfrE-30" style="edgeStyle=orthogonalEdgeStyle;rounded=0;orthogonalLoop=1;jettySize=auto;html=1;exitX=0.5;exitY=0;exitDx=0;exitDy=0;" edge="1" parent="1" source="FpEalk4_GSlrNA8bFfrE-27">
          <mxGeometry relative="1" as="geometry">
            <mxPoint x="410" y="300" as="targetPoint" />
            <Array as="points">
              <mxPoint x="760" y="300" />
            </Array>
          </mxGeometry>
        </mxCell>
        <mxCell id="FpEalk4_GSlrNA8bFfrE-27" value="&lt;font style=&quot;font-size: 14px;&quot;&gt;i++&lt;/font&gt;" style="rounded=1;whiteSpace=wrap;html=1;" vertex="1" parent="1">
          <mxGeometry x="700" y="340" width="120" height="60" as="geometry" />
        </mxCell>
        <mxCell id="FpEalk4_GSlrNA8bFfrE-39" style="edgeStyle=orthogonalEdgeStyle;rounded=0;orthogonalLoop=1;jettySize=auto;html=1;exitX=1;exitY=0.5;exitDx=0;exitDy=0;entryX=0;entryY=0.5;entryDx=0;entryDy=0;" edge="1" parent="1" source="FpEalk4_GSlrNA8bFfrE-34" target="FpEalk4_GSlrNA8bFfrE-38">
          <mxGeometry relative="1" as="geometry" />
        </mxCell>
        <mxCell id="FpEalk4_GSlrNA8bFfrE-34" value="&lt;font style=&quot;font-size: 14px;&quot;&gt;calculating nedov&lt;/font&gt;" style="rounded=1;whiteSpace=wrap;html=1;" vertex="1" parent="1">
          <mxGeometry x="540" y="670" width="120" height="60" as="geometry" />
        </mxCell>
        <mxCell id="FpEalk4_GSlrNA8bFfrE-36" style="edgeStyle=orthogonalEdgeStyle;rounded=0;orthogonalLoop=1;jettySize=auto;html=1;exitX=1;exitY=0.5;exitDx=0;exitDy=0;entryX=0;entryY=0.5;entryDx=0;entryDy=0;" edge="1" parent="1" source="FpEalk4_GSlrNA8bFfrE-35" target="FpEalk4_GSlrNA8bFfrE-34">
          <mxGeometry relative="1" as="geometry" />
        </mxCell>
        <mxCell id="FpEalk4_GSlrNA8bFfrE-41" value="Yes" style="edgeLabel;html=1;align=center;verticalAlign=middle;resizable=0;points=[];" vertex="1" connectable="0" parent="FpEalk4_GSlrNA8bFfrE-36">
          <mxGeometry x="-0.2372" y="1" relative="1" as="geometry">
            <mxPoint as="offset" />
          </mxGeometry>
        </mxCell>
        <mxCell id="FpEalk4_GSlrNA8bFfrE-43" style="edgeStyle=orthogonalEdgeStyle;rounded=0;orthogonalLoop=1;jettySize=auto;html=1;exitX=0;exitY=0.5;exitDx=0;exitDy=0;entryX=1;entryY=0.5;entryDx=0;entryDy=0;" edge="1" parent="1" source="FpEalk4_GSlrNA8bFfrE-35" target="FpEalk4_GSlrNA8bFfrE-42">
          <mxGeometry relative="1" as="geometry" />
        </mxCell>
        <mxCell id="FpEalk4_GSlrNA8bFfrE-44" value="No" style="edgeLabel;html=1;align=center;verticalAlign=middle;resizable=0;points=[];" vertex="1" connectable="0" parent="FpEalk4_GSlrNA8bFfrE-43">
          <mxGeometry x="-0.1622" y="-1" relative="1" as="geometry">
            <mxPoint as="offset" />
          </mxGeometry>
        </mxCell>
        <mxCell id="FpEalk4_GSlrNA8bFfrE-35" value="&lt;font style=&quot;font-size: 14px;&quot;&gt;i&amp;lt;n&lt;/font&gt;" style="rhombus;whiteSpace=wrap;html=1;" vertex="1" parent="1">
          <mxGeometry x="374" y="660" width="80" height="80" as="geometry" />
        </mxCell>
        <mxCell id="FpEalk4_GSlrNA8bFfrE-40" style="edgeStyle=orthogonalEdgeStyle;rounded=0;orthogonalLoop=1;jettySize=auto;html=1;exitX=0.5;exitY=0;exitDx=0;exitDy=0;" edge="1" parent="1" source="FpEalk4_GSlrNA8bFfrE-38">
          <mxGeometry relative="1" as="geometry">
            <mxPoint x="410" y="640" as="targetPoint" />
            <Array as="points">
              <mxPoint x="780" y="640" />
            </Array>
          </mxGeometry>
        </mxCell>
        <mxCell id="FpEalk4_GSlrNA8bFfrE-38" value="&lt;font style=&quot;font-size: 14px;&quot;&gt;i++&lt;/font&gt;" style="rounded=1;whiteSpace=wrap;html=1;" vertex="1" parent="1">
          <mxGeometry x="720" y="670" width="120" height="60" as="geometry" />
        </mxCell>
        <mxCell id="FpEalk4_GSlrNA8bFfrE-45" style="edgeStyle=orthogonalEdgeStyle;rounded=0;orthogonalLoop=1;jettySize=auto;html=1;exitX=0.5;exitY=1;exitDx=0;exitDy=0;entryX=0.5;entryY=0;entryDx=0;entryDy=0;" edge="1" parent="1" source="FpEalk4_GSlrNA8bFfrE-42" target="FpEalk4_GSlrNA8bFfrE-1">
          <mxGeometry relative="1" as="geometry" />
        </mxCell>
        <mxCell id="FpEalk4_GSlrNA8bFfrE-42" value="&lt;font style=&quot;font-size: 14px;&quot;&gt;nedov&lt;/font&gt;" style="shape=parallelogram;perimeter=parallelogramPerimeter;whiteSpace=wrap;html=1;fixedSize=1;" vertex="1" parent="1">
          <mxGeometry x="190" y="670" width="120" height="60" as="geometry" />
        </mxCell>
        <mxCell id="FpEalk4_GSlrNA8bFfrE-48" style="edgeStyle=orthogonalEdgeStyle;rounded=0;orthogonalLoop=1;jettySize=auto;html=1;exitX=0.5;exitY=1;exitDx=0;exitDy=0;entryX=0.5;entryY=0;entryDx=0;entryDy=0;" edge="1" parent="1" source="FpEalk4_GSlrNA8bFfrE-46" target="FpEalk4_GSlrNA8bFfrE-47">
          <mxGeometry relative="1" as="geometry" />
        </mxCell>
        <mxCell id="FpEalk4_GSlrNA8bFfrE-46" value="&lt;font style=&quot;font-size: 14px;&quot;&gt;findMedian(vector&amp;lt;int&amp;gt; &amp;amp;arr)&lt;/font&gt;" style="ellipse;whiteSpace=wrap;html=1;" vertex="1" parent="1">
          <mxGeometry x="1100" y="25" width="180" height="65" as="geometry" />
        </mxCell>
        <mxCell id="FpEalk4_GSlrNA8bFfrE-50" style="edgeStyle=orthogonalEdgeStyle;rounded=0;orthogonalLoop=1;jettySize=auto;html=1;exitX=0.5;exitY=1;exitDx=0;exitDy=0;entryX=0.5;entryY=0;entryDx=0;entryDy=0;" edge="1" parent="1" source="FpEalk4_GSlrNA8bFfrE-47" target="FpEalk4_GSlrNA8bFfrE-49">
          <mxGeometry relative="1" as="geometry" />
        </mxCell>
        <mxCell id="FpEalk4_GSlrNA8bFfrE-47" value="&lt;font style=&quot;font-size: 14px;&quot;&gt;sort(arr.begin(), arr.end())&lt;/font&gt;" style="shape=process;whiteSpace=wrap;html=1;backgroundOutline=1;" vertex="1" parent="1">
          <mxGeometry x="1130" y="120" width="120" height="60" as="geometry" />
        </mxCell>
        <mxCell id="FpEalk4_GSlrNA8bFfrE-52" style="edgeStyle=orthogonalEdgeStyle;rounded=0;orthogonalLoop=1;jettySize=auto;html=1;exitX=0.5;exitY=1;exitDx=0;exitDy=0;entryX=0.5;entryY=0;entryDx=0;entryDy=0;" edge="1" parent="1" source="FpEalk4_GSlrNA8bFfrE-49" target="FpEalk4_GSlrNA8bFfrE-51">
          <mxGeometry relative="1" as="geometry" />
        </mxCell>
        <mxCell id="FpEalk4_GSlrNA8bFfrE-49" value="&lt;font style=&quot;font-size: 14px;&quot;&gt;n=arr.size()&lt;/font&gt;" style="rounded=1;whiteSpace=wrap;html=1;" vertex="1" parent="1">
          <mxGeometry x="1130" y="210" width="120" height="60" as="geometry" />
        </mxCell>
        <mxCell id="FpEalk4_GSlrNA8bFfrE-51" value="&lt;font style=&quot;font-size: 14px;&quot;&gt;return arr[n/2]&lt;/font&gt;" style="ellipse;whiteSpace=wrap;html=1;" vertex="1" parent="1">
          <mxGeometry x="1100" y="310" width="180" height="65" as="geometry" />
        </mxCell>
      </root>
    </mxGraphModel>
  </diagram>
</mxfile>
